<?xml version="1.0" encoding="UTF-8"?>
<svg id="Capa_2" data-name="Capa 2" xmlns="http://www.w3.org/2000/svg" viewBox="0 0 31.01 27.87">
  <defs>
    <style>
      .cls-1 {
        fill: #fff;
      }
    </style>
  </defs>
  <g id="Quienes_somos" data-name="Quienes somos">
    <g>
      <g>
        <path class="cls-1" d="M27.91,14.22c-.14.81-.04,1.69-.25,2.5-.17.66-.52,1.37-.91,1.94-.24.35-.42.69-.62,1.05-.19.33-.48.5-.72.79-.35.42-.56.79-.97,1.17-.27.25-.51.52-.8.75-.48.38-.82.75-1.33,1.09-.54.37-1.1.65-1.68.95-.61.32-1.4.75-2.1.83-.62.07-1.29-.01-1.91,0-.54,0-1.01-.11-1.52-.23-.59-.14-1.1-.14-1.73-.15-1.2-.02-2.52-.42-3.62-.9-.59-.26-1.13-.47-1.62-.91-.4-.36-.79-.75-1.24-1-.56-.32-1.06-.85-1.53-1.27-.41-.36-.84-.61-1.19-1.03-.61-.74-1.26-1.17-1.29-2.24-.01-.53-.03-1.09,0-1.62.01-.27.12-.41.18-.66.07-.29.02-.66.02-.97,0-.99-.14-1.99.3-2.85.52-1.01,1.26-1.92,1.8-2.89.57-1.04,1.35-2.53,2.44-3.08,1.35-.69,2.77-1.49,4.24-1.9.75-.22,1.54-.32,2.3-.48.36-.07.76-.15,1.1-.28.28-.1.5-.29.81-.24h1.24c.28,0,.59-.04.86,0,.27.03.4.15.66.2.57.12,1.16-.08,1.73.09.6.17,1.15.48,1.72.77.49.24,1.08.55,1.43.95.6.69,1.36,1.26,2.01,1.91.89.9,1.46,2.08,2,3.24.63,1.36.45,3.07.21,4.5Z"/>
        <path d="M30.67,11.6c-.09-.44-.12-.88-.22-1.31-.15-.62-.49-1.06-.73-1.65-.86-2.11-2.42-3.76-4.01-5.35-.25-.25-.49-.57-.8-.76-.17-.11-.37-.09-.54-.21-.21-.15-.27-.39-.43-.56-.44-.47-.83-.73-1.43-.99-1.18-.51-2.34-.57-3.62-.57-.55,0-1.11-.02-1.67,0-.76.02-1.38.54-.53-.19-.56.02-1.32-.01-1.89.22-.4.17-.78.44-1.16.64-1.04.51-1.99,1.19-3.02,1.67-.63.3-1.11.8-1.69,1.18-.74.49-1.65.8-2.44,1.23-1.09.6-2.08,1.3-3.06,2.04-.47.35-.89.86-1.24,1.32-.4.52-.94,1.09-1.13,1.74-.33,1.18-.39,2.42-.61,3.59-.25,1.34-.67,2.93-.32,4.31.26,1.06.16,2.23.92,3.1.17.19.29.4.46.59.22.24.5.39.68.69.36.58.45,1.21.94,1.72.85.9,1.82,1.49,2.86,2.14.31.2.59.41.87.63.32.25.51.29.93.37.72.15,1.5.12,2.22.28.73.16,1.31.4,2.08.39.81,0,1.58.04,2.36-.15,1.29-.3,2.56-.54,3.85-.83.39-.09.78-.34,1.14-.51.57-.26,1.15-.48,1.74-.72,1.09-.44,1.89-1.1,2.86-1.73.78-.5,1.58-.9,2.2-1.61.6-.69,1.11-1.5,1.66-2.24.62-.84,1.19-1.66,1.63-2.59.22-.47.46-.86.63-1.38.22-.68.6-1.31.67-2.02.04-.4.2-.77.18-1.18-.03-.47-.24-.9-.33-1.35ZM27.4,14.51c-.14.81-.04,1.69-.25,2.5-.17.66-.52,1.37-.91,1.94-.24.35-.42.69-.62,1.05-.19.33-.48.5-.72.79-.35.42-.56.79-.97,1.17-.27.25-.51.52-.8.75-.48.38-.82.75-1.33,1.09-.54.37-1.1.65-1.68.95-.61.32-1.4.75-2.1.83-.62.07-1.29-.01-1.91,0-.54,0-1.01-.11-1.52-.23-.59-.14-1.1-.14-1.73-.15-1.2-.02-2.52-.42-3.62-.9-.59-.26-1.13-.47-1.62-.91-.4-.36-.79-.75-1.24-1-.56-.32-1.06-.85-1.53-1.27-.41-.36-.84-.61-1.19-1.03-.61-.74-1.26-1.17-1.29-2.24-.01-.53-.03-1.09,0-1.62.01-.27.12-.41.18-.66.07-.29.02-.66.02-.97,0-.99-.14-1.99.3-2.85.52-1.01,1.26-1.92,1.8-2.89.57-1.04,1.35-2.53,2.44-3.08,1.35-.69,2.77-1.49,4.24-1.9.75-.22,1.54-.32,2.3-.48.36-.07.76-.15,1.1-.28.28-.1.5-.29.81-.24h1.24c.28,0,.59-.04.86,0,.27.03.4.15.66.2.57.12,1.16-.08,1.73.09.6.17,1.15.48,1.72.77.49.24,1.08.55,1.43.95.6.69,1.36,1.26,2.01,1.91.89.9,1.46,2.08,2,3.24.63,1.36.45,3.07.21,4.5Z"/>
      </g>
      <g>
        <g>
          <path d="M12.7,14.85c.12.04.26.08.41.12.35.1.24.24.31.58.03.14.06.27.14.39.21.32.56.55.79.87.29.39.61.61,1.11.52.41-.07.66-.43.99-.65.39-.26.72-.62,1.06-.95.11-.11.19-.19.25-.34.11-.29-.04-.38.3-.5.42-.15.7-.17,1.06-.5.38-.35.76-.71,1.12-1.11.34-.38,1.92-1.43.67-1.78-.56-.16-.97.07-1.47.31-.67.32-1.31.68-1.92,1.09-.31.22-.64.71-.95.84-.16.06-.32-.02-.49.05-.17.08-.35.23-.53.36-.14-.11-.29-.23-.43-.29-.17-.07-.33.01-.49-.05-.31-.13-.64-.62-.95-.84-.8-.55-1.69-1.02-2.57-1.42-.16-.07-.32-.12-.5-.14-.25-.02-.68,0-.85.21-.44.55.91,1.39,1.2,1.73.55.62,1.16,1.21,1.84,1.68.2.14.46.23.64.37.17.13.2.41.49.33"/>
          <path d="M17.15,14.19c0-.39-.13-.68-.14-1.06,0-.33,0-.66,0-.99,0-.64-.14-1.2-.14-1.84,0-.14.04-.36,0-.5-.03-.12-.13-.15-.16-.27-.07-.3.03-.68.01-1s-.15-.58-.14-.92c0-.26,0-.77-.23-.92-.4-.24-.86.04-1.15.25-.15.1-.49.11-.59.25-.12.16.05.65,0,.85-.07.29-.15.43-.15.77,0,.28,0,.56,0,.85v2.19c0,.38,0,.75,0,1.13,0,.28-.13.51-.14.78,0,.12-.06.46.02.54s.35.01.46.03c.16.03.23.12.43.13.16,0,.35.03.5-.03.25-.09.29-.21.57-.26.19-.03.25-.06.84,0Z"/>
        </g>
        <path d="M9.29,16.45c0,.67,0,1.26.15,1.89.05.2.15.45.3.61.24.24.49.18.81.18.77,0,1.71-.15,2.46.01.33.07.57.13.92.13.38,0,.76,0,1.14,0,.63,0,1.27.03,1.91,0,.29-.01.48-.11.78-.14.14-.01.21-.09.31-.11.17-.04.33-.03.5-.06.12-.03.21-.09.38-.11.14-.01.23-.04.35-.07.25-.07.53-.1.78-.21.43-.19.99-.21,1.38-.52.26-.21.25-.52.24-.82,0-.1-.06-.39.02-.47.06-.06.41-.06.47-.02.21.14.03.61.07.84.03.15.13.27.16.42.03.17,0,.39,0,.56,0,.33.04.5-.23.69-.24.17-.57.21-.84.3-.12.04-.22.12-.34.15-.14.03-.3-.05-.44-.01-.12.03-.15.13-.27.16-.18.04-.36-.03-.54.02-.24.07-.53.16-.81.24-.3.08-.52.11-.85.15-.62.07-1.15.39-1.76.54-.15.04-.28,0-.42.02-.18.03-.32.13-.49.15-.34.05-.65.1-.99.13-.32.03-.58.15-.92.15s-.66,0-.99,0c-.35,0-.71,0-1.06,0-.19,0-.33-.03-.49-.07-.14-.04-.27-.04-.42-.06-.2-.03-.36-.13-.56-.15-.19-.02-.32-.04-.5-.12-.31-.14-.6-.23-.63-.58-.02-.2.02-.37-.03-.57-.05-.21-.11-.33-.11-.56,0-.34,0-.68-.07-.99s-.16-.64.07-.85c.18-.17.85-.31.57-.84Z"/>
      </g>
    </g>
  </g>
</svg>