<?xml version="1.0" encoding="UTF-8"?>
<svg id="Capa_2" data-name="Capa 2" xmlns="http://www.w3.org/2000/svg" viewBox="0 0 31.01 27.87">
  <defs>
    <style>
      .cls-1 {
        fill: #fff;
      }
    </style>
  </defs>
  <g id="Quienes_somos" data-name="Quienes somos">
    <g>
      <g>
        <path class="cls-1" d="M27.91,14.22c-.14.81-.04,1.69-.25,2.5-.17.66-.52,1.37-.91,1.94-.24.35-.42.69-.62,1.05-.19.33-.48.5-.72.79-.35.42-.56.79-.97,1.17-.27.25-.51.52-.8.75-.48.38-.82.75-1.33,1.09-.54.37-1.1.65-1.68.95-.61.32-1.4.75-2.1.83-.62.07-1.29-.01-1.91,0-.54,0-1.01-.11-1.52-.23-.59-.14-1.1-.14-1.73-.15-1.2-.02-2.52-.42-3.62-.9-.59-.26-1.13-.47-1.62-.91-.4-.36-.79-.75-1.24-1-.56-.32-1.06-.85-1.53-1.27-.41-.36-.84-.61-1.19-1.03-.61-.74-1.26-1.17-1.29-2.24-.01-.53-.03-1.09,0-1.62.01-.27.12-.41.18-.66.07-.29.02-.66.02-.97,0-.99-.14-1.99.3-2.85.52-1.01,1.26-1.92,1.8-2.89.57-1.04,1.35-2.53,2.44-3.08,1.35-.69,2.77-1.49,4.24-1.9.75-.22,1.54-.32,2.3-.48.36-.07.76-.15,1.1-.28.28-.1.5-.29.81-.24h1.24c.28,0,.59-.04.86,0,.27.03.4.15.66.2.57.12,1.16-.08,1.73.09.6.17,1.15.48,1.72.77.49.24,1.08.55,1.43.95.6.69,1.36,1.26,2.01,1.91.89.9,1.46,2.08,2,3.24.63,1.36.45,3.07.21,4.5Z"/>
        <path d="M30.67,11.6c-.09-.44-.12-.88-.22-1.31-.15-.62-.49-1.06-.73-1.65-.86-2.11-2.42-3.76-4.01-5.35-.25-.25-.49-.57-.8-.76-.17-.11-.37-.09-.54-.21-.21-.15-.27-.39-.43-.56-.44-.47-.83-.73-1.43-.99-1.18-.51-2.34-.57-3.62-.57-.55,0-1.11-.02-1.67,0-.76.02-1.38.54-.53-.19-.56.02-1.32-.01-1.89.22-.4.17-.78.44-1.16.64-1.04.51-1.99,1.19-3.02,1.67-.63.3-1.11.8-1.69,1.18-.74.49-1.65.8-2.44,1.23-1.09.6-2.08,1.3-3.06,2.04-.47.35-.89.86-1.24,1.32-.4.52-.94,1.09-1.13,1.74-.33,1.18-.39,2.42-.61,3.59-.25,1.34-.67,2.93-.32,4.31.26,1.06.16,2.23.92,3.1.17.19.29.4.46.59.22.24.5.39.68.69.36.58.45,1.21.94,1.72.85.9,1.82,1.49,2.86,2.14.31.2.59.41.87.63.32.25.51.29.93.37.72.15,1.5.12,2.22.28.73.16,1.31.4,2.08.39.81,0,1.58.04,2.36-.15,1.29-.3,2.56-.54,3.85-.83.39-.09.78-.34,1.14-.51.57-.26,1.15-.48,1.74-.72,1.09-.44,1.89-1.1,2.86-1.73.78-.5,1.58-.9,2.2-1.61.6-.69,1.11-1.5,1.66-2.24.62-.84,1.19-1.66,1.63-2.59.22-.47.46-.86.63-1.38.22-.68.6-1.31.67-2.02.04-.4.2-.77.18-1.18-.03-.47-.24-.9-.33-1.35ZM27.4,14.51c-.14.81-.04,1.69-.25,2.5-.17.66-.52,1.37-.91,1.94-.24.35-.42.69-.62,1.05-.19.33-.48.5-.72.79-.35.42-.56.79-.97,1.17-.27.25-.51.52-.8.75-.48.38-.82.75-1.33,1.09-.54.37-1.1.65-1.68.95-.61.32-1.4.75-2.1.83-.62.07-1.29-.01-1.91,0-.54,0-1.01-.11-1.52-.23-.59-.14-1.1-.14-1.73-.15-1.2-.02-2.52-.42-3.62-.9-.59-.26-1.13-.47-1.62-.91-.4-.36-.79-.75-1.24-1-.56-.32-1.06-.85-1.53-1.27-.41-.36-.84-.61-1.19-1.03-.61-.74-1.26-1.17-1.29-2.24-.01-.53-.03-1.09,0-1.62.01-.27.12-.41.18-.66.07-.29.02-.66.02-.97,0-.99-.14-1.99.3-2.85.52-1.01,1.26-1.92,1.8-2.89.57-1.04,1.35-2.53,2.44-3.08,1.35-.69,2.77-1.49,4.24-1.9.75-.22,1.54-.32,2.3-.48.36-.07.76-.15,1.1-.28.28-.1.5-.29.81-.24h1.24c.28,0,.59-.04.86,0,.27.03.4.15.66.2.57.12,1.16-.08,1.73.09.6.17,1.15.48,1.72.77.49.24,1.08.55,1.43.95.6.69,1.36,1.26,2.01,1.91.89.9,1.46,2.08,2,3.24.63,1.36.45,3.07.21,4.5Z"/>
      </g>
      <g>
        <path d="M26.26,12.86c-.21-.25-.45-.36-.69-.57-.08-.07-.08-.13-.14-.21s-.15-.1-.22-.18c-.08-.09-.07-.12-.16-.2-.63-.55-1.28-1.09-2.01-1.41-1.43-.64-2.95-1.15-4.41-1.57-.37-.11-.71-.25-1.07-.37-.14-.05-.27-.06-.42-.11-.38-.11-.75-.26-1.13-.38-.17-.05-.36-.08-.53-.06-.1.01-.2.07-.3.09s-.21-.03-.32,0c-.15.04-.3.14-.45.21-.21.1-.46.13-.69.16-.43.07-.81.33-1.23.45-1.46.42-2.98.94-4.41,1.57-.53.24-1.06.62-1.56.95-.13.09-.27.19-.39.28-.14.11-.31.17-.46.27-.3.2-.63.52-.82.85-.1.17-.19.24-.23.45-.04.18-.01.36-.02.55,0,.2.05.36.09.55.04.21.13.43.24.6.18.26.4.53.62.77s.43.48.69.63c.23.13.42.28.64.42.11.07.22.14.32.2.06.04.14.08.19.13.09.09.09.2.21.25s.27.06.4.11c.33.13.65.25.98.38,1.3.48,2.68,1.21,3.95,1.64.32.11,1.48.62,2.35.73.06,0,.12.02.18.02.03,0,.06,0,.09,0,.03,0,.06,0,.09,0,.06,0,.13,0,.18-.02.87-.11,2.03-.62,2.35-.73,1.27-.43,2.65-1.16,3.95-1.64.5-.18,1.1-.31,1.52-.71s.96-.65,1.4-1.03c.23-.2.36-.52.53-.79.12-.19.3-.35.44-.53.19-.24.4-.56.4-.89,0-.17,0-.33,0-.5,0-.2-.04-.23-.15-.36ZM19.05,17.24c-.12.04-.24.08-.35.13-.34.15-.72.24-1.06.41-.29.14-.58.27-.89.34-.15.04-.3.07-.45.07-.27,0-.5.12-.75.26-.33-.18-.7-.31-.94-.4-.33-.12-.67-.27-.97-.45-.25-.15-.45-.36-.72-.5-.23-.12-.45-.3-.68-.45-.39-.25-.82-.46-1.22-.69s-.74-.55-1.1-.88c-.22-.19-.44-.3-.69-.41s-.87-.44-.84-.82c.01-.17.2-.46.29-.61.14-.22.36-.37.55-.51.22-.17.43-.31.66-.43s.45-.35.7-.48c.36-.19.73-.29,1.07-.48.21-.11.38-.28.58-.4.23-.13.49-.22.72-.33.58-.27,1.33-.34,1.84-.77.18-.15.33-.12.58-.12.22,0,.46-.03.69,0,.17.02.31.15.48.19.12.03.24.05.36.07.24.06.49.12.73.19.49.14.98.31,1.45.54.53.26,1.06.47,1.54.78.36.23.72.52,1.08.75.2.13.25.27.38.46.18.25.46.36.53.66.03.1.1.19.12.29s0,.19,0,.3c.02.17.13.28.08.46-.09.34-.49.67-.72.87-.57.51-1.21.88-1.8,1.33-.13.1-.29.15-.44.23-.08.04-.15.05-.23.09-.06.03-.11.12-.17.14-.14.06-.29.11-.43.16Z"/>
        <path d="M12.94,12.73c-.16.24-.17.53-.2.81,0,.09,0,.19,0,.28,0,.15,0,.3,0,.44s0,.29,0,.43c0,.08-.01.17,0,.25,0,.06.03.09.05.14.04.14.06.22.15.34.08.11.21.23.29.33.11.13.17.28.26.42.07.1.21.18.3.26.15.14.35.19.55.25.17.05.25.11.43.11.15,0,.31,0,.46,0,.29,0,.53-.11.79-.19.09-.02.12-.05.22-.05.08,0,.13-.03.21-.06.16-.06.31-.07.46-.15.28-.14.54-.3.74-.55.22-.27.38-.56.49-.88.06-.17.13-.32.12-.52,0-.17,0-.35,0-.52,0-.1-.05-.17-.07-.27s0-.19-.03-.29c-.06-.21-.19-.4-.28-.6-.08-.18-.21-.33-.28-.51-.08-.2-.15-.31-.31-.45-.18-.16-.35-.3-.59-.36-.3-.08-.64-.07-.93-.18-.09-.03-.18-.1-.28-.11-.15-.02-.25.11-.37.11-.08,0-.33-.03-.44,0-.05.01-.09.05-.15.06-.05.01-.11-.01-.16,0-.06.02-.06.06-.12.08-.16.08-.19.11-.3.24-.09.1-.18.21-.29.3s-.21.13-.29.25c-.15.21-.32.41-.46.62Z"/>
      </g>
    </g>
  </g>
</svg>