<?xml version="1.0" encoding="UTF-8"?>
<svg id="Capa_1" data-name="Capa 1" xmlns="http://www.w3.org/2000/svg" viewBox="0 0 37.94 37.94">
  <defs>
    <style>
      .cls-1 {
        fill: none;
      }

      .cls-2 {
        fill: #4e4d4d;
      }
    </style>
  </defs>
  <g id="Logo">
    <path id="Initiator" class="cls-2" d="M37.94,18.97C37.94,8.49,29.45,0,18.97,0S0,8.49,0,18.97c0,8.9,6.12,16.36,14.39,18.41v-12.62h-3.91v-5.8h3.91v-2.5c0-6.46,2.92-9.45,9.26-9.45,1.2,0,3.28.24,4.12.47v5.26c-.45-.05-1.23-.07-2.19-.07-3.11,0-4.31,1.18-4.31,4.24v2.05h6.2l-1.06,5.8h-5.13v13.04c9.39-1.13,16.67-9.13,16.67-18.83Z"/>
    <path id="F" class="cls-1" d="M26.4,24.77l1.06-5.8h-6.2v-2.05c0-3.06,1.2-4.24,4.31-4.24.97,0,1.74.02,2.19.07v-5.26c-.85-.24-2.92-.47-4.12-.47-6.34,0-9.26,2.99-9.26,9.45v2.5h-3.91v5.8h3.91v12.62c1.47.36,3,.56,4.58.56.78,0,1.54-.05,2.3-.14v-13.04h5.13Z"/>
  </g>
</svg>