<?xml version="1.0" encoding="UTF-8"?>
<svg id="Capa_1" data-name="Capa 1" xmlns="http://www.w3.org/2000/svg" viewBox="0 0 38.06 37.94">
  <defs>
    <style>
      .cls-1 {
        fill: #4e4d4d;
      }
    </style>
  </defs>
  <path class="cls-1" d="M11.15.13c-2.02.1-3.41.42-4.62.89-1.25.49-2.31,1.14-3.37,2.19-1.06,1.06-1.7,2.12-2.19,3.36-.47,1.21-.79,2.59-.88,4.61C.01,13.21,0,13.86,0,19.01c0,5.15.03,5.8.13,7.82.1,2.02.42,3.4.89,4.6.49,1.25,1.14,2.3,2.2,3.36,1.06,1.05,2.12,1.7,3.38,2.18,1.21.47,2.59.78,4.62.87,2.03.09,2.68.11,7.84.1,5.17,0,5.82-.03,7.85-.13,2.02-.1,3.41-.42,4.62-.89,1.25-.49,2.31-1.14,3.37-2.19,1.06-1.06,1.7-2.12,2.19-3.36.47-1.21.79-2.59.88-4.6.09-2.02.11-2.67.1-7.82,0-5.15-.03-5.8-.13-7.82-.1-2.02-.42-3.4-.89-4.6-.49-1.25-1.14-2.3-2.2-3.36-1.06-1.05-2.12-1.7-3.38-2.18-1.21-.47-2.59-.79-4.62-.87C24.81.01,24.16,0,18.99,0c-5.17,0-5.82.03-7.85.13M11.37,34.43c-1.86-.08-2.86-.39-3.53-.65-.89-.34-1.52-.75-2.19-1.42-.67-.66-1.08-1.29-1.43-2.18-.26-.67-.57-1.67-.66-3.52-.09-2-.12-2.6-.13-7.67,0-5.06,0-5.66.1-7.67.08-1.85.39-2.85.65-3.52.34-.89.76-1.52,1.42-2.18.67-.67,1.3-1.08,2.19-1.42.67-.26,1.68-.57,3.53-.66,2.01-.09,2.61-.11,7.69-.12,5.08,0,5.68,0,7.69.1,1.85.08,2.86.39,3.53.65.89.34,1.52.75,2.19,1.42.67.66,1.08,1.29,1.43,2.18.26.67.57,1.67.66,3.52.1,2,.12,2.6.13,7.67,0,5.07,0,5.67-.1,7.67-.08,1.85-.39,2.85-.65,3.52-.34.89-.76,1.52-1.42,2.18-.66.66-1.3,1.08-2.19,1.42-.67.26-1.68.57-3.53.66-2.01.09-2.61.12-7.69.12-5.08,0-5.68,0-7.69-.1M26.89,8.83c0,1.26,1.03,2.27,2.29,2.27,1.26,0,2.28-1.02,2.28-2.28,0-1.26-1.03-2.27-2.29-2.27-1.26,0-2.28,1.02-2.28,2.28M9.26,18.99c.01,5.38,4.39,9.73,9.79,9.72,5.4-.01,9.76-4.38,9.75-9.76-.01-5.38-4.39-9.73-9.79-9.72-5.4.01-9.76,4.38-9.75,9.76M12.69,18.98c0-3.49,2.83-6.33,6.33-6.34,3.5,0,6.35,2.82,6.36,6.31,0,3.49-2.83,6.33-6.33,6.34-3.5,0-6.35-2.82-6.36-6.31"/>
</svg>