<?xml version="1.0" encoding="UTF-8"?>
<svg id="Capa_2" data-name="Capa 2" xmlns="http://www.w3.org/2000/svg" viewBox="0 0 150.78 8.91">
  <g id="textos">
    <g>
      <path d="M105.37,1.34c-.7,0-1.4.02-2.1.04-1.19.03-1.73-.41-2.82-.55-2.35-.28-4.98.07-7.35.09-1.02.01-2.44-.24-3.42,0-.51.13-.55.51-1.06.63-.48.12-1.22-.01-1.72-.01-1.13,0-2.26.04-3.39.04-1.45,0-2.47.61-3.96.6-4.51,0-9.03.1-13.54.15l-7.9.09c-1.13.01-2.25.02-3.38.04-.71,0-1.43-.03-2.13.01-1.07.06-1.93.48-2.98.64-4.56.67-9.48-.19-14.09.11-1,.07-1.79.5-2.79.62-1.29.15-2.68.02-3.98.03-1.12.01-2.27.1-3.39.05-1.39-.06-2.5-.56-3.96-.53-1.11.02-2.26.1-3.37.05-1.27-.05-2.56-.79-3.83-.45-.48.13-.84.5-1.29.69-1.68.68-3.56.11-5.32.45-.93.18-1.54.53-2.54.51-.9-.01-1.84-.1-2.7.13-1.14.3-3.47,1.3-1.7,2.57,2.49,1.79,7.8,1.87,10.61,1.13,2.77-.72,5.68-.63,8.51-.54,1.25.04,2.46.08,3.7-.05,1.86-.19,3.56.4,5.44.39,2.41-.02,4.82-.12,7.23-.17,4.45-.1,8.69-.56,13.13-.06.84.09,1.56.01,2.39-.09,2.27-.28,4.59.07,6.88.08.86,0,1.89.13,2.72.03.93-.12,1.58-.53,2.51-.61,6.26-.51,12.56,1.09,18.81.51,2.78-.26,5.54-.21,8.33-.24,4.84-.05,9.56-1.23,14.39-1.29,3.29-.04,6.59-.07,9.88-.11s6.4-.05,9.6-.1c1.82-.03,3.27.54,5.09.51,2.28-.04,4.24.19,6.19-1.08,1.35-.89,3.7-3.47,1.55-5-.93-.66-2.53-.19-3.58-.18-2.4.03-4.81.13-7.21.08-2.17-.05-3.64-.93-5.94-.37-.66.16-1.21.46-2.1.46-.82,0-1.64-.08-2.41.15-.83.25-1.31.46-2.38.46-.85,0-1.69.02-2.54.03-2.03.02-4.06.02-6.08.05Z"/>
      <path d="M143.34,5.28c.2,1.18.91,1.93,2.15,2.18.93.19,2.72.1,3.46-.55,1.44-1.25,2.11-3.89,1.72-5.74-.26-1.22-1.07-1.06-2.17-1.06-.57,0-1.08-.02-1.62.1-.1.21-.27.33-.5.36l-.91-.05c-2.44.53-2.13,2.76-2.13,4.76"/>
    </g>
  </g>
</svg>