<?xml version="1.0" encoding="UTF-8"?>
<svg id="Capa_2" data-name="Capa 2" xmlns="http://www.w3.org/2000/svg" viewBox="0 0 200.82 53.14">
  <defs>
    <style>
      .cls-1 {
        fill: #fff;
      }
    </style>
  </defs>
  <g id="textos">
    <g>
      <g>
        <path class="cls-1" d="M147.6,27.11c.27,1.55.08,3.22.48,4.76.33,1.25,1,2.61,1.73,3.7.45.67.8,1.31,1.18,2,.35.64.91.95,1.37,1.5.67.81,1.06,1.51,1.85,2.24.52.48.97,1,1.53,1.44.91.73,1.56,1.43,2.53,2.09,1.04.7,2.1,1.24,3.2,1.82,1.15.62,2.68,1.43,4.01,1.57,1.18.13,2.46-.03,3.65-.02,1.02,0,1.93-.2,2.9-.44,1.12-.27,2.1-.26,3.3-.29,2.28-.04,4.8-.8,6.9-1.72,1.12-.49,2.16-.89,3.09-1.73.75-.68,1.5-1.42,2.36-1.91,1.07-.61,2.02-1.62,2.92-2.42.79-.69,1.6-1.16,2.27-1.97,1.17-1.41,2.41-2.22,2.46-4.27.03-1.02.06-2.08,0-3.09-.03-.51-.23-.78-.34-1.26-.13-.56-.03-1.27-.03-1.85,0-1.89.27-3.8-.58-5.44-.99-1.92-2.41-3.66-3.43-5.51-1.09-1.99-2.57-4.82-4.64-5.87-2.58-1.31-5.29-2.84-8.08-3.63-1.44-.41-2.93-.6-4.39-.91-.68-.14-1.44-.29-2.09-.54-.53-.2-.95-.56-1.54-.47h-2.37c-.53,0-1.12-.07-1.65,0-.51.06-.77.28-1.25.39-1.08.23-2.21-.15-3.29.16-1.15.33-2.19.92-3.27,1.46-.93.46-2.07,1.05-2.72,1.8-1.15,1.31-2.6,2.4-3.84,3.65-1.71,1.72-2.79,3.97-3.81,6.18-1.19,2.59-.86,5.85-.39,8.58Z"/>
        <path d="M141.71,24.68c-.05.77.26,1.47.34,2.24.14,1.34.87,2.55,1.28,3.84.32.98.77,1.72,1.19,2.62.84,1.78,1.91,3.34,3.1,4.94,1.04,1.41,2.02,2.94,3.16,4.26,1.18,1.36,2.71,2.12,4.19,3.07,1.85,1.2,3.38,2.45,5.45,3.29,1.11.45,2.22.87,3.31,1.37.69.31,1.43.8,2.17.97,2.46.55,4.88,1,7.35,1.57,1.5.35,2.97.27,4.51.28,1.46.01,2.58-.45,3.97-.74,1.38-.3,2.86-.24,4.24-.53.79-.17,1.15-.23,1.77-.71.55-.43,1.07-.83,1.67-1.21,1.99-1.25,3.82-2.36,5.45-4.09.93-.99,1.11-2.17,1.79-3.28.35-.56.89-.86,1.3-1.31.33-.36.56-.76.88-1.13,1.45-1.66,1.25-3.89,1.75-5.91.66-2.64-.14-5.67-.62-8.23-.42-2.24-.53-4.61-1.16-6.85-.35-1.23-1.39-2.32-2.15-3.31-.67-.88-1.47-1.84-2.37-2.52-1.88-1.41-3.76-2.74-5.84-3.88-1.5-.83-3.24-1.41-4.66-2.34-1.1-.72-2.03-1.69-3.23-2.26-1.95-.93-3.78-2.21-5.75-3.19-.74-.37-1.46-.89-2.21-1.21-1.08-.45-2.54-.38-3.61-.43,1.62,1.38.44.39-1.01.36-1.06-.03-2.12,0-3.18,0-2.44,0-4.66.12-6.91,1.09-1.14.49-1.88,1-2.72,1.88-.31.33-.43.79-.83,1.07-.33.24-.71.2-1.03.4-.58.36-1.04.98-1.52,1.46-3.02,3.03-6.01,6.18-7.64,10.2-.45,1.11-1.1,1.95-1.39,3.14-.21.83-.25,1.67-.43,2.5-.18.86-.58,1.68-.63,2.57ZM148.97,19.09c1.02-2.21,2.1-4.46,3.81-6.18,1.24-1.25,2.7-2.34,3.84-3.65.66-.75,1.79-1.34,2.72-1.8,1.08-.54,2.12-1.13,3.27-1.46,1.08-.31,2.21.07,3.29-.16.48-.1.74-.33,1.25-.39.53-.06,1.11,0,1.65,0h2.37c.59-.1,1.01.27,1.54.47.65.24,1.41.39,2.09.54,1.47.31,2.96.5,4.39.91,2.79.8,5.5,2.32,8.08,3.63,2.07,1.06,3.55,3.89,4.64,5.87,1.02,1.85,2.43,3.59,3.43,5.51.85,1.64.58,3.56.58,5.44,0,.58-.1,1.29.03,1.85.12.48.31.75.34,1.26.05,1.02.02,2.08,0,3.09-.05,2.04-1.29,2.85-2.46,4.27-.67.81-1.49,1.27-2.27,1.97-.9.8-1.85,1.81-2.92,2.42-.86.49-1.6,1.23-2.36,1.91-.93.84-1.97,1.24-3.09,1.73-2.1.92-4.61,1.67-6.9,1.72-1.2.02-2.18.01-3.3.29-.97.24-1.88.45-2.9.44-1.19,0-2.47.14-3.65.02-1.33-.14-2.86-.96-4.01-1.57-1.09-.58-2.16-1.12-3.2-1.82-.97-.66-1.62-1.36-2.53-2.09-.56-.44-1-.96-1.53-1.44-.78-.72-1.18-1.43-1.85-2.24-.46-.55-1.01-.86-1.37-1.5-.38-.69-.73-1.33-1.18-2-.73-1.09-1.4-2.45-1.73-3.7-.4-1.54-.21-3.21-.48-4.76-.47-2.73-.8-5.98.39-8.58Z"/>
      </g>
      <path d="M173.53,24.88c-1.88-.03-2.84-.14-4.52-.99-1.34-.68-2.68-1.35-3.95-2.12-1.22-.74-2.58-1.04-3.68-1.98-.81-.69-1.3-1.75-2.48-1.8-.42-2.64,6.63.4,7.57.62,2.71.65,5.53,1.45,8.19,2.44,1.11.41,2.27,1.36,3.36,1.6.56.12,1.14-.05,1.72.1.74.18,1.55.59,2.27.86,1.27.47,5.41,1.64,5.62,3.31.16,1.29-1.96,1.39-2.8,1.62-1.47.41-3.01,1.1-4.52,1.56-2.53.77-4.9,1.64-7.34,2.39s-4.99,1.88-7.34,2.55c-1.03.29-6.76,2.49-6.25-.02.24-1.16,2.19-1.66,3.14-1.96,1.59-.5,3.03-1.21,4.53-1.98,2.58-1.32,3.79-4.03,7.05-3.95"/>
    </g>
    <g>
      <g>
        <path class="cls-1" d="M53.22,27.11c-.27,1.55-.08,3.22-.48,4.76-.33,1.25-1,2.61-1.73,3.7-.45.67-.8,1.31-1.18,2-.35.64-.91.95-1.37,1.5-.67.81-1.06,1.51-1.85,2.24-.52.48-.97,1-1.53,1.44-.91.73-1.56,1.43-2.53,2.09-1.04.7-2.1,1.24-3.2,1.82-1.15.62-2.68,1.43-4.01,1.57-1.18.13-2.46-.03-3.65-.02-1.02,0-1.93-.2-2.9-.44-1.12-.27-2.1-.26-3.3-.29-2.28-.04-4.8-.8-6.9-1.72-1.12-.49-2.16-.89-3.09-1.73-.75-.68-1.5-1.42-2.36-1.91-1.07-.61-2.02-1.62-2.92-2.42-.79-.69-1.6-1.16-2.27-1.97-1.17-1.41-2.41-2.22-2.46-4.27-.03-1.02-.06-2.08,0-3.09.03-.51.23-.78.34-1.26.13-.56.03-1.27.03-1.85,0-1.89-.27-3.8.58-5.44.99-1.92,2.41-3.66,3.43-5.51,1.09-1.99,2.57-4.82,4.64-5.87,2.58-1.31,5.29-2.84,8.08-3.63,1.44-.41,2.93-.6,4.39-.91.68-.14,1.44-.29,2.09-.54.53-.2.95-.56,1.54-.47h2.37c.53,0,1.12-.07,1.65,0,.51.06.77.28,1.25.39,1.08.23,2.21-.15,3.29.16,1.15.33,2.19.92,3.27,1.46.93.46,2.07,1.05,2.72,1.8,1.15,1.31,2.6,2.4,3.84,3.65,1.71,1.72,2.79,3.97,3.81,6.18,1.19,2.59.86,5.85.39,8.58Z"/>
        <path d="M58.48,22.11c-.18-.83-.22-1.67-.43-2.5-.29-1.19-.94-2.03-1.39-3.14-1.63-4.02-4.62-7.17-7.64-10.2-.48-.48-.94-1.09-1.52-1.46-.32-.2-.7-.17-1.03-.4-.39-.28-.52-.74-.83-1.07-.84-.89-1.59-1.4-2.72-1.88-2.24-.97-4.47-1.09-6.91-1.09-1.06,0-2.12-.03-3.18,0C31.39.39,30.21,1.38,31.83,0c-1.07.04-2.52-.03-3.61.43-.75.32-1.48.85-2.21,1.21-1.97.98-3.8,2.26-5.75,3.19-1.2.57-2.12,1.53-3.23,2.26-1.42.93-3.15,1.52-4.66,2.34-2.09,1.15-3.96,2.47-5.84,3.88-.9.67-1.7,1.64-2.37,2.52-.75.99-1.8,2.08-2.15,3.31-.63,2.25-.74,4.61-1.16,6.85-.48,2.56-1.27,5.59-.62,8.23.5,2.02.31,4.26,1.75,5.91.32.37.55.77.88,1.13.42.45.96.75,1.3,1.31.69,1.12.86,2.3,1.79,3.28,1.63,1.72,3.46,2.84,5.45,4.09.6.37,1.12.78,1.67,1.21.61.48.98.55,1.77.71,1.37.29,2.85.24,4.24.53,1.39.3,2.51.75,3.97.74,1.54-.01,3.01.07,4.51-.28,2.47-.57,4.89-1.03,7.35-1.57.74-.16,1.48-.65,2.17-.97,1.09-.5,2.2-.92,3.31-1.37,2.07-.84,3.6-2.09,5.45-3.29,1.48-.95,3.01-1.71,4.19-3.07,1.15-1.32,2.12-2.85,3.16-4.26,1.19-1.61,2.26-3.16,3.1-4.94.42-.9.88-1.64,1.19-2.62.41-1.29,1.14-2.5,1.28-3.84.08-.77.39-1.48.34-2.24-.05-.89-.45-1.71-.63-2.57ZM52.25,27.67c-.27,1.55-.08,3.22-.48,4.76-.33,1.25-1,2.61-1.73,3.7-.45.67-.8,1.31-1.18,2-.35.64-.91.95-1.37,1.5-.67.81-1.06,1.51-1.85,2.24-.52.48-.97,1-1.53,1.44-.91.73-1.56,1.43-2.53,2.09-1.04.7-2.1,1.24-3.2,1.82-1.15.62-2.68,1.43-4.01,1.57-1.18.13-2.46-.03-3.65-.02-1.02,0-1.93-.2-2.9-.44-1.12-.27-2.1-.26-3.3-.29-2.28-.04-4.8-.8-6.9-1.72-1.12-.49-2.16-.89-3.09-1.73-.75-.68-1.5-1.42-2.36-1.91-1.07-.61-2.02-1.62-2.92-2.42-.79-.69-1.6-1.16-2.27-1.97-1.17-1.41-2.41-2.22-2.46-4.27-.03-1.02-.06-2.08,0-3.09.03-.51.23-.78.34-1.26.13-.56.03-1.27.03-1.85,0-1.89-.27-3.8.58-5.44.99-1.92,2.41-3.66,3.43-5.51,1.09-1.99,2.57-4.82,4.64-5.87,2.58-1.31,5.29-2.84,8.08-3.63,1.44-.41,2.93-.6,4.39-.91.68-.14,1.44-.29,2.09-.54.53-.2.95-.56,1.54-.47h2.37c.53,0,1.12-.07,1.65,0,.51.06.77.28,1.25.39,1.08.23,2.21-.15,3.29.16,1.15.33,2.19.92,3.27,1.46.93.46,2.07,1.05,2.72,1.8,1.15,1.31,2.6,2.4,3.84,3.65,1.71,1.72,2.79,3.97,3.81,6.18,1.19,2.59.86,5.85.39,8.58Z"/>
      </g>
      <path d="M27.29,24.88c1.88-.03,2.84-.14,4.52-.99,1.34-.68,2.68-1.35,3.95-2.12s2.58-1.04,3.68-1.98c.81-.69,1.3-1.75,2.48-1.8.42-2.64-6.63.4-7.57.62-2.71.65-5.53,1.45-8.19,2.44-1.11.41-2.27,1.36-3.36,1.6-.56.12-1.14-.05-1.72.1-.74.18-1.55.59-2.27.86-1.27.47-5.41,1.64-5.62,3.31-.16,1.29,1.96,1.39,2.8,1.62,1.47.41,3.01,1.1,4.52,1.56,2.53.77,4.9,1.64,7.34,2.39s4.99,1.88,7.34,2.55c1.03.29,6.76,2.49,6.25-.02-.24-1.16-2.19-1.66-3.14-1.96-1.59-.5-3.03-1.21-4.53-1.98-2.58-1.32-3.79-4.03-7.05-3.95"/>
    </g>
  </g>
</svg>