<?xml version="1.0" encoding="UTF-8"?>
<svg id="Capa_2" data-name="Capa 2" xmlns="http://www.w3.org/2000/svg" viewBox="0 0 31.01 27.87">
  <defs>
    <style>
      .cls-1 {
        fill: #fff;
      }

      .cls-2 {
        fill: #4e4d4d;
      }
    </style>
  </defs>
  <g id="textos">
    <g>
      <path class="cls-1" d="M27.91,14.22c-.14.81-.04,1.69-.25,2.5-.17.66-.52,1.37-.91,1.94-.24.35-.42.69-.62,1.05-.19.33-.48.5-.72.79-.35.42-.56.79-.97,1.17-.27.25-.51.52-.8.75-.48.38-.82.75-1.33,1.09-.54.37-1.1.65-1.68.95-.61.32-1.4.75-2.1.83-.62.07-1.29-.01-1.91,0-.54,0-1.01-.11-1.52-.23-.59-.14-1.1-.14-1.73-.15-1.2-.02-2.52-.42-3.62-.9-.59-.26-1.13-.47-1.62-.91-.4-.36-.79-.75-1.24-1-.56-.32-1.06-.85-1.53-1.27-.41-.36-.84-.61-1.19-1.03-.61-.74-1.26-1.17-1.29-2.24-.01-.53-.03-1.09,0-1.62.01-.27.12-.41.18-.66.07-.29.02-.66.02-.97,0-.99-.14-1.99.3-2.85.52-1.01,1.26-1.92,1.8-2.89.57-1.04,1.35-2.53,2.44-3.08,1.35-.69,2.77-1.49,4.24-1.9.75-.22,1.54-.32,2.3-.48.36-.07.76-.15,1.1-.28.28-.1.5-.29.81-.24h1.24c.28,0,.59-.04.86,0,.27.03.4.15.66.2.57.12,1.16-.08,1.73.09.6.17,1.15.48,1.72.77.49.24,1.08.55,1.43.95.6.69,1.36,1.26,2.01,1.91.89.9,1.46,2.08,2,3.24.63,1.36.45,3.07.21,4.5Z"/>
      <path class="cls-2" d="M30.67,11.6c-.09-.44-.12-.88-.22-1.31-.15-.62-.49-1.06-.73-1.65-.86-2.11-2.42-3.76-4.01-5.35-.25-.25-.49-.57-.8-.76-.17-.11-.37-.09-.54-.21-.21-.15-.27-.39-.43-.56-.44-.47-.83-.73-1.43-.99-1.18-.51-2.34-.57-3.62-.57-.55,0-1.11-.02-1.67,0-.76.02-1.38.54-.53-.19-.56.02-1.32-.01-1.89.22-.4.17-.78.44-1.16.64-1.04.51-1.99,1.19-3.02,1.67-.63.3-1.11.8-1.69,1.18-.74.49-1.65.8-2.44,1.23-1.09.6-2.08,1.3-3.06,2.04-.47.35-.89.86-1.24,1.32-.4.52-.94,1.09-1.13,1.74-.33,1.18-.39,2.42-.61,3.59-.25,1.34-.67,2.93-.32,4.31.26,1.06.16,2.23.92,3.1.17.19.29.4.46.59.22.24.5.39.68.69.36.58.45,1.21.94,1.72.85.9,1.82,1.49,2.86,2.14.31.2.59.41.87.63.32.25.51.29.93.37.72.15,1.5.12,2.22.28.73.16,1.31.4,2.08.39.81,0,1.58.04,2.36-.15,1.29-.3,2.56-.54,3.85-.83.39-.09.78-.34,1.14-.51.57-.26,1.15-.48,1.74-.72,1.09-.44,1.89-1.1,2.86-1.73.78-.5,1.58-.9,2.2-1.61.6-.69,1.11-1.5,1.66-2.24.62-.84,1.19-1.66,1.63-2.59.22-.47.46-.86.63-1.38.22-.68.6-1.31.67-2.02.04-.4.2-.77.18-1.18-.03-.47-.24-.9-.33-1.35ZM27.4,14.51c-.14.81-.04,1.69-.25,2.5-.17.66-.52,1.37-.91,1.94-.24.35-.42.69-.62,1.05-.19.33-.48.5-.72.79-.35.42-.56.79-.97,1.17-.27.25-.51.52-.8.75-.48.38-.82.75-1.33,1.09-.54.37-1.1.65-1.68.95-.61.32-1.4.75-2.1.83-.62.07-1.29-.01-1.91,0-.54,0-1.01-.11-1.52-.23-.59-.14-1.1-.14-1.73-.15-1.2-.02-2.52-.42-3.62-.9-.59-.26-1.13-.47-1.62-.91-.4-.36-.79-.75-1.24-1-.56-.32-1.06-.85-1.53-1.27-.41-.36-.84-.61-1.19-1.03-.61-.74-1.26-1.17-1.29-2.24-.01-.53-.03-1.09,0-1.62.01-.27.12-.41.18-.66.07-.29.02-.66.02-.97,0-.99-.14-1.99.3-2.85.52-1.01,1.26-1.92,1.8-2.89.57-1.04,1.35-2.53,2.44-3.08,1.35-.69,2.77-1.49,4.24-1.9.75-.22,1.54-.32,2.3-.48.36-.07.76-.15,1.1-.28.28-.1.5-.29.81-.24h1.24c.28,0,.59-.04.86,0,.27.03.4.15.66.2.57.12,1.16-.08,1.73.09.6.17,1.15.48,1.72.77.49.24,1.08.55,1.43.95.6.69,1.36,1.26,2.01,1.91.89.9,1.46,2.08,2,3.24.63,1.36.45,3.07.21,4.5Z"/>
      <g>
        <path class="cls-2" d="M4.95,15.43c.11.63.48,1.03,1.15,1.17.5.1,1.45.05,1.85-.29.77-.67,1.13-2.08.92-3.06-.14-.65-.57-.57-1.16-.57-.3,0-.58,0-.87.05-.05.11-.14.18-.27.19l-.48-.03c-1.3.28-1.14,1.47-1.14,2.54"/>
        <path class="cls-2" d="M11.97,16.04c.11.63.48,1.03,1.15,1.17.5.1,1.45.05,1.85-.29.77-.67,1.13-2.08.92-3.06-.14-.65-.57-.57-1.16-.57-.3,0-.58,0-.87.05-.05.11-.14.18-.27.19l-.48-.03c-1.3.28-1.14,1.47-1.14,2.54"/>
        <path class="cls-2" d="M19.91,15.43c.11.63.48,1.03,1.15,1.17.5.1,1.45.05,1.85-.29.77-.67,1.13-2.08.92-3.06-.14-.65-.57-.57-1.16-.57-.3,0-.58,0-.87.05-.05.11-.14.18-.27.19l-.48-.03c-1.3.28-1.14,1.47-1.14,2.54"/>
      </g>
    </g>
  </g>
</svg>