<?xml version="1.0" encoding="UTF-8"?>
<svg id="Capa_1" data-name="Capa 1" xmlns="http://www.w3.org/2000/svg" viewBox="0 0 39.82 27.89">
  <defs>
    <style>
      .cls-1 {
        fill: #4e4d4d;
      }
    </style>
  </defs>
  <path class="cls-1" d="M38.97,4.36c-.47-1.72-1.77-3.05-3.52-3.52-3.08-.84-15.56-.84-15.56-.84,0,0-12.45,0-15.53.84-1.72.47-3.05,1.8-3.55,3.52-.81,3.08-.81,9.57-.81,9.57,0,0,0,6.49.81,9.6.49,1.69,1.83,3.05,3.55,3.52,3.08.84,15.53.84,15.53.84,0,0,12.48,0,15.56-.84,1.74-.47,3.05-1.83,3.52-3.52.84-3.11.84-9.6.84-9.6,0,0,0-6.49-.84-9.57ZM15.94,19.92V7.97l10.32,5.96-10.32,5.99Z"/>
</svg>